<svg xmlns="http://www.w3.org/2000/svg" width="320" height="320" viewBox="0 0 240 240"><defs><clipPath id="a"><path d="M120 29.672h59.355v59.36H120Zm0 0"/></clipPath><clipPath id="c"><path d="M0 .672h59.355v59.36H0Zm0 0"/></clipPath><clipPath id="b"><path d="M0 0h60v61H0z"/></clipPath><clipPath id="d"><path d="M125 47h24v26h-24Zm0 0"/></clipPath><clipPath id="e"><path d="m176.684 50.559-31.7 37.035-22.222-19.02L154.46 31.54Zm0 0"/></clipPath><clipPath id="f"><path d="m176.684 50.559-31.7 37.035-22.222-19.02L154.46 31.54Zm0 0"/></clipPath><clipPath id="g"><path d="M148.445 54.457 130.81 75.063l-8.125-6.958L140.32 47.5Zm0 0"/></clipPath><clipPath id="h"><path d="M137 42h38v42h-38Zm0 0"/></clipPath><clipPath id="i"><path d="m176.684 50.559-31.7 37.035-22.222-19.02L154.46 31.54Zm0 0"/></clipPath><clipPath id="j"><path d="m176.684 50.559-31.7 37.035-22.222-19.02L154.46 31.54Zm0 0"/></clipPath><clipPath id="k"><path d="m176.66 50.59-31.476 36.773-11.579-9.906 31.473-36.777Zm0 0"/></clipPath><clipPath id="l"><path d="M142 33h18v20h-18Zm0 0"/></clipPath><clipPath id="m"><path d="m176.684 50.559-31.7 37.035-22.222-19.02L154.46 31.54Zm0 0"/></clipPath><clipPath id="n"><path d="m176.684 50.559-31.7 37.035-22.222-19.02L154.46 31.54Zm0 0"/></clipPath><clipPath id="o"><path d="M60.645 89.031H120v59.356H60.645Zm0 0"/></clipPath><clipPath id="q"><path d="M.645.031H60v59.356H.645Zm0 0"/></clipPath><clipPath id="p"><path d="M0 0h60v60H0z"/></clipPath><clipPath id="r"><path d="M61.715 36h55.5v39h-55.5Zm0 0"/></clipPath><clipPath id="s"><path d="M77 76h24v8.422H77Zm0 0"/></clipPath><clipPath id="t"><path d="M77 29.672h14V44H77Zm0 0"/></clipPath><clipPath id="u"><path d="M121.285 111H132v25h-10.715Zm0 0"/></clipPath><clipPath id="v"><path d="M121.285 105H136v6h-14.715Zm0 0"/></clipPath><clipPath id="w"><path d="M160 101.547h10V111h-10Zm0 0"/></clipPath><clipPath id="x"><path d="M65.285 101.547h48v36h-48Zm0 0"/></clipPath><clipPath id="y"><path d="M0 0h140v73H0z"/></clipPath></defs><path fill="#fff" d="M-24-24h288v288H-24z"/><path fill="#ffffeb" d="M-24-24h288v288H-24z"/><g clip-path="url(#a)"><g clip-path="url(#b)" transform="translate(120 29)"><g clip-path="url(#c)"><path fill="#142962" d="M0 .672h59.355v59.36H0Zm0 0"/></g></g></g><g clip-path="url(#d)"><g clip-path="url(#e)"><g clip-path="url(#f)"><g clip-path="url(#g)"><path fill="#ffffeb" d="m141.078 48.168 6.582 5.633c.422.36.473.996.11 1.422l-2.258 2.64c-.254.297-.645.41-1 .325a1.9 1.9 0 0 0-.953.136 2.5 2.5 0 0 0-.95.688 2.4 2.4 0 0 0-.53 1.043c-.083.36-.071.715.03 1.023l-.953.32.957-.32c.117.352.032.723-.199.984l-7.195 8.41c-1.059 1.239-2.469 1.989-3.89 2.208-1.47.222-2.95-.125-4.09-1.098-1.137-.977-1.708-2.383-1.716-3.871-.003-1.438.52-2.945 1.579-4.184l7.207-8.418c.254-.297.64-.41 1-.328.3.04.629-.008.949-.133.344-.136.676-.367.949-.687a2.5 2.5 0 0 0 .535-1.047 1.87 1.87 0 0 0-.035-1.02l.953-.32-.957.32a1.02 1.02 0 0 1 .2-.988l2.253-2.629c.364-.425 1-.472 1.422-.109m-2.922 14.02a.503.503 0 0 0-.054-.711.506.506 0 0 0-.711.054l-4.953 5.793a.503.503 0 1 0 .766.652Zm-1.547-1.325a.503.503 0 0 0-.054-.71.506.506 0 0 0-.711.054L130.887 66a.503.503 0 0 0 .058.71c.211.18.528.157.711-.058Zm-1.586-1.355a.506.506 0 0 0-.054-.711.5.5 0 0 0-.711.055L129.3 64.64a.506.506 0 0 0 .054.71c.211.18.532.157.711-.054z"/></g></g></g></g><g clip-path="url(#h)"><g clip-path="url(#i)"><g clip-path="url(#j)"><g clip-path="url(#k)"><path fill-rule="evenodd" d="M172.938 47.402c-.016.028-.036.055-.051.082l-2.664 4.328-4.368-.624-.906-3.891 3.934-3.363-.008-.008c-2.836-2.344-5.691-.864-7.809 1.613a8.26 8.26 0 0 0-1.765 3.434 7.9 7.9 0 0 0-.102 3.316l.09.496-20.348 23.778c-1.144 1.335-1.414 2.949-.593 4.515.273.516.648.98 1.09 1.363.445.38.964.676 1.519.868 1.672.566 3.223.054 4.367-1.282l20.352-23.777.504.016a8 8 0 0 0 3.261-.614 8.3 8.3 0 0 0 3.118-2.273c1.027-1.203 1.957-2.777 2.03-4.395.071-1.468-.55-2.636-1.651-3.582M160.12 59.543 143.2 79.309a.82.82 0 1 1-1.246-1.066l16.918-19.77a.823.823 0 1 1 1.25 1.07"/></g></g></g></g><g clip-path="url(#l)"><g clip-path="url(#m)"><g clip-path="url(#n)"><path fill="#ffffeb" d="m159.184 35.652-2.13 2.485-.726.422-12.195 14.25-1.531-1.313 12.183-14.234.367-.856 2.078-2.426z"/></g></g></g><g clip-path="url(#o)"><g clip-path="url(#p)" transform="translate(60 89)"><g clip-path="url(#q)"><path fill="#fd5719" d="M.645.031H60v59.356H.645Zm0 0"/></g></g></g><g clip-path="url(#r)"><path d="M115.773 36.285h-8.03c.812.871.87 2.262.116 3.188l-.058.117h5.996v27.957H65.133V39.59h10.77l-.407-1.102a2.47 2.47 0 0 1 .348-2.203H63.156c-.758 0-1.34.578-1.34 1.332v35.555c0 .754.582 1.332 1.34 1.332h52.617c.758 0 1.34-.578 1.34-1.332V37.617c0-.754-.582-1.332-1.34-1.332M89.465 72.707a1.685 1.685 0 0 1-1.688-1.684c0-.925.754-1.68 1.688-1.68.93 0 1.687.755 1.687 1.68 0 .872-.757 1.684-1.687 1.684m0 0"/></g><g clip-path="url(#s)"><path d="M100.93 82.625v1.277c0 .29-.23.52-.524.52H78.52a.52.52 0 0 1-.524-.52v-1.277c0-.29.234-.523.524-.523h3.902l1.047-5.856h12.05l1.047 5.856h3.899c.234 0 .465.234.465.523m0 0"/></g><path d="m107.8 41.91-1.398-.176c-.523-.054-.988-.402-1.222-.925a1.72 1.72 0 0 1 .175-1.508l.872-1.102a.45.45 0 0 0-.055-.582l-1.457-1.449a.455.455 0 0 0-.582-.059l-1.106.871c-.406.348-.988.407-1.515.176a1.38 1.38 0 0 1-.93-1.16l-.059-1.336c0-.23-.234-.406-.406-.406H98.02a.4.4 0 0 0-.407.406l-.175 1.39a1.37 1.37 0 0 1-.93 1.16c-.524.235-1.047.177-1.516-.17l-1.105-.872a.446.446 0 0 0-.582.059l-1.453 1.449a.446.446 0 0 0-.059.582l.871 1.101c.352.407.41.985.176 1.508-.23.52-.64.867-1.223.926l-1.394.176c-.235 0-.41.23-.41.406v2.086c0 .234.175.406.41.406l1.394.176c.524.059.992.406 1.223.926.234.523.117 1.047-.176 1.508l-.871 1.046a.44.44 0 0 0 .059.579l1.453 1.449c.175.176.41.176.582.058l1.105-.87c.41-.348.992-.403 1.516-.173.523.172.87.637.93 1.22l.175 1.39c0 .23.235.406.407.406h2.097c.23 0 .406-.176.406-.406l.176-1.39c.059-.524.406-.99.93-1.22.523-.23 1.047-.175 1.516.172l1.105.871a.446.446 0 0 0 .582-.058l1.453-1.45a.44.44 0 0 0 .059-.578l-.871-1.101c-.352-.406-.41-.988-.176-1.508.234-.523.64-.871 1.223-.93l1.398-.175c.23-.055.406-.23.406-.407v-2.086c-.117-.23-.293-.406-.523-.406m-8.788 5.453c-2.215 0-4.02-1.8-4.02-4.004s1.805-4 4.02-4c2.21 0 4.015 1.797 4.015 4s-1.804 4.004-4.015 4.004m0 0"/><path d="M99.012 40.98a2.36 2.36 0 0 0-2.387 2.38 2.355 2.355 0 0 0 2.387 2.378 2.36 2.36 0 0 0 2.386-2.379 2.36 2.36 0 0 0-2.386-2.379m-6.985 10.672-1.398-.172c-.524-.058-.988-.406-1.223-.93a1.72 1.72 0 0 1 .176-1.507l.871-1.102a.44.44 0 0 0-.058-.578l-1.454-1.449a.446.446 0 0 0-.582-.059l-1.105.868c-.41.347-.992.406-1.516.175a1.38 1.38 0 0 1-.93-1.16l-.175-1.39c0-.235-.235-.407-.406-.407h-2.098a.396.396 0 0 0-.406.407l-.176 1.39a1.38 1.38 0 0 1-.93 1.16c-.523.23-1.047.172-1.515-.175l-1.106-.868a.446.446 0 0 0-.582.06l-1.336 1.507a.44.44 0 0 0-.058.578l.87 1.102c.352.406.407.988.176 1.507-.234.524-.64.871-1.222.93l-1.399.172c-.23 0-.406.234-.406.406v2.09c0 .23.176.406.406.406l1.399.172c.523.059.988.406 1.222.93.23.52.118 1.043-.175 1.508l-.813 1.043a.444.444 0 0 0 .055.578l1.457 1.453a.455.455 0 0 0 .582.058l1.105-.87c.407-.348.989-.407 1.516-.176.523.175.871.64.93 1.218l.175 1.391c0 .234.23.406.407.406h2.093c.235 0 .41-.172.41-.406l.172-1.39c.06-.524.41-.985.934-1.22.523-.23 1.047-.171 1.512.176l1.105.871c.176.114.41.114.582-.058l1.457-1.453a.44.44 0 0 0 .059-.578l-.875-1.102c-.348-.406-.406-.984-.172-1.508.23-.523.64-.87 1.223-.93l1.394-.171c.235-.059.41-.235.41-.407v-2.09c-.175-.23-.351-.406-.582-.406m-8.734 5.453c-2.211 0-4.016-1.796-4.016-4 0-2.207 1.805-4.003 4.016-4.003 2.215 0 4.02 1.796 4.02 4.003-.06 2.204-1.805 4-4.02 4m0 0"/><path d="M83.293 50.727a2.36 2.36 0 0 0-2.387 2.378 2.357 2.357 0 0 0 2.387 2.375c1.34 0 2.387-1.042 2.387-2.375a2.355 2.355 0 0 0-2.387-2.378m0 0"/><g clip-path="url(#t)"><path d="m90.277 38.2-.87-.583c-.348-.23-.524-.578-.466-.984 0-.406.23-.754.641-.93l.93-.46c.117-.06.234-.235.175-.407l-.523-1.453c-.117-.055-.293-.172-.41-.113l-.988.23c-.407.117-.758-.059-1.047-.348-.293-.289-.352-.695-.235-1.101l.352-.985c.059-.175 0-.351-.176-.406l-1.398-.7c-.117-.054-.29 0-.407.118l-.582.871c-.234.348-.582.52-.988.465a1.04 1.04 0 0 1-.933-.582l-.465-.926c-.059-.176-.235-.234-.407-.176l-1.457.524c-.175.058-.23.23-.23.348l.23.984q.087.61-.347 1.043c-.293.293-.7.351-1.106.234l-.992-.347c-.172-.059-.289 0-.406.172l-.64 1.335c-.06.172 0 .29.116.407l.872.578c.351.234.527.582.468.988 0 .406-.234.754-.582.926l-.933.465c-.176.058-.23.23-.176.406l.469 1.45c.058.175.23.23.347.23l1.047-.23c.41-.118.758.058 1.05.347.29.289.349.695.231 1.101l-.347.989c-.059.172 0 .347.172.406l1.398.695c.117.059.348 0 .406-.117l.582-.871c.235-.348.582-.52.993-.461.406 0 .753.23.93.578l.464.93c.059.172.234.23.41.172l1.453-.52c.176-.058.235-.234.235-.351l-.235-.985c-.117-.406.059-.754.352-1.043.289-.289.695-.347 1.105-.234l.989.348c.175.058.293 0 .406-.172l.64-1.336c.06-.23 0-.407-.117-.52m-7.566.812c-1.453-.7-2.035-2.438-1.336-3.887.695-1.45 2.441-2.031 3.898-1.336a2.9 2.9 0 0 1 1.34 3.887c-.699 1.394-2.445 2.031-3.902 1.336m0 0"/></g><path d="M84.809 34.777c-.875-.406-1.922-.058-2.329.813-.41.867-.058 1.914.813 2.32.875.403 1.922.055 2.328-.812.41-.813.059-1.856-.812-2.32m73.347 99.027h-9.3l.835-5.051h7.63zm-10.426.617h11.555c.258 0 .473.215.473.476v.375a.477.477 0 0 1-.473.473H147.73a.474.474 0 0 1-.472-.473v-.375c0-.261.21-.476.472-.476m-9.625-5.086-4.144 2.863v-19.008l1.203-.828v14.489a2.486 2.486 0 0 0 2.484 2.484z"/><path d="m135.164 111.625-1.809 1.25v20.48l5.82-4.02h2.165v.52l-8.914 5.739v-24.098l2.738-1.762z"/><g clip-path="url(#u)"><path d="M130.645 118.219h-8.282v-2.117h8.282Zm0-3.176h-8.282v-2.121h8.282Zm-4.141 7.926a.385.385 0 1 1 0 .77.384.384 0 1 1 0-.77m-.774-1.52a.774.774 0 0 1 1.547 0 .775.775 0 0 1-.773.774.775.775 0 0 1-.774-.774m-2.707 8.07c0-.167.137-.304.301-.304h6.356c.168 0 .304.137.304.305s-.136.3-.304.3h-6.356a.3.3 0 0 1-.3-.3m0 1.516a.3.3 0 0 1 .301-.3h6.356a.3.3 0 0 1 .304.3.305.305 0 0 1-.304.305h-6.356a.304.304 0 0 1-.3-.305m0 1.52c0-.168.137-.305.301-.305h6.356a.305.305 0 0 1 0 .61h-6.356a.304.304 0 0 1-.3-.305m0 1.52c0-.169.137-.305.301-.305h6.356a.302.302 0 1 1 0 .605h-6.356a.3.3 0 0 1-.3-.3m8.645-22.348H121.34v24.097h10.328z"/></g><g clip-path="url(#v)"><path d="m135.164 108.715-3.496 2.25H121.34l8.914-5.738h5.57a2.48 2.48 0 0 0-.66 1.687z"/></g><path d="m169.367 112.996.164-.183a.78.78 0 0 0 .223-.504.71.71 0 0 0-.082-.903l-.227-.226 1.274-1.278 3.379 3.38c1.394-.305 2.773.218 3.41 1.429.5.957.437 2.125-.063 3.144-.097.207-.379.243-.465.063l-.44-.887c-.4-.804-1.446-1.023-2.325-.488s-1.274 1.629-.875 2.434l.437.886c.09.18-.086.422-.297.403-1.023-.079-1.925-.625-2.394-1.57-.55-1.11-.36-2.489.387-3.598z"/><g clip-path="url(#w)"><path d="m169.441 108.625-1.277 1.273-.176-.175a.7.7 0 0 0-.5-.203.7.7 0 0 0-.398.125.77.77 0 0 0-.508.218l-.18.168-1.593-1.597c-1.297.578-2.75.425-3.68-.504-.734-.735-.984-1.797-.77-2.848.043-.215.313-.328.453-.187l.688.687c.625.629 1.742.535 2.477-.2.738-.737.828-1.85.203-2.476l-.692-.687c-.14-.14-.027-.41.188-.453 1.074-.22 2.16.043 2.898.816.883.93 1.016 2.356.453 3.629z"/></g><path d="m167.39 113.504-3.44 3.437a.14.14 0 0 1-.102.043.14.14 0 0 1-.098-.043.137.137 0 0 1 0-.195l3.441-3.441a.14.14 0 0 1 .2 0 .14.14 0 0 1 0 .199m-.675-.676-3.442 3.442a.14.14 0 0 1-.097.039.14.14 0 0 1-.102-.04.14.14 0 0 1 0-.199l3.442-3.441a.14.14 0 0 1 .199 0 .14.14 0 0 1 0 .2m-.676-.676-3.437 3.442a.15.15 0 0 1-.102.043.14.14 0 0 1-.098-.043.14.14 0 0 1 0-.2l3.442-3.44a.137.137 0 0 1 .195 0 .14.14 0 0 1 0 .198m8.766-6.586L175.98 104l-.636-.633-1.567 1.172-.125.508-5.488 5.488-.492-.492a.255.255 0 0 0-.363 0l-.059.059-.008.007a.34.34 0 0 0-.347.079l-5.84 5.363c-.77.77-.77 2.023 0 2.793a1.98 1.98 0 0 0 2.789 0l5.363-5.84a.34.34 0 0 0 .082-.348c0-.004.004-.004.004-.008l.062-.058a.26.26 0 0 0 0-.363l-.546-.547 5.488-5.489z"/><path d="M152.918 126.582c0-.324.262-.586.59-.586a.588.588 0 1 1 0 1.176.587.587 0 0 1-.59-.59m-15.27 1.54h31.72c.698 0 1.269-.571 1.269-1.27v-6.704a4 4 0 0 1-.63-.918c-.585-1.183-.581-2.613-.019-3.914l-.902-.902-.145.156v10.434h-30.87v-17.668h21.28a4.3 4.3 0 0 1-.265-1.691h-21.438c-.699 0-1.27.57-1.27 1.27v19.937c0 .699.571 1.27 1.27 1.27m30.758-22.232q.036-.122.059-.245h.902c.535 0 .996.335 1.18.808l-.79.79z"/><g clip-path="url(#x)"><path fill="#ffffeb" d="M113.48 124.137c-.242-2.297-2.566-22.485-10.535-22.485a14 14 0 0 0-7.965 2.141 9.8 9.8 0 0 1-5.562 1.629 9.8 9.8 0 0 1-5.559-1.629c-2.382-1.496-5.16-2.219-7.968-2.14-7.993 0-10.293 20.187-10.536 22.484v7.808a5.8 5.8 0 0 0 5.805 5.801h.078c1.871-.027 3.637-.91 4.735-2.434 1.199-1.601 4.543-4.332 13.445-4.332s12.246 2.704 13.45 4.333a5.84 5.84 0 0 0 4.73 2.433h.082c3.207 0 5.8-2.594 5.8-5.8zm-1.496 7.836c0 2.379-1.925 4.277-4.304 4.304h-.082a4.44 4.44 0 0 1-3.528-1.847c-1.683-2.246-5.59-4.918-14.652-4.918-9.063 0-12.965 2.672-14.648 4.918-.805 1.152-2.114 1.82-3.532 1.847h-.078c-2.383 0-4.281-1.925-4.305-4.304v-7.7c.614-5.91 3.422-21.097 9.036-21.097 2.566-.078 5.078.59 7.246 1.953a11.4 11.4 0 0 0 6.281 1.82c2.219.024 4.41-.617 6.281-1.82a12.83 12.83 0 0 1 7.246-1.953c5.59 0 8.395 15.187 9.04 21.097Zm0 0"/></g><path fill="#ffffeb" d="M84.898 114.434h-3.742v-3.743c0-.43-.347-.75-.746-.75h-4.52c-.43 0-.75.348-.75.75v3.77h-3.769a.746.746 0 0 0-.746.746v4.52c0 .43.348.75.746.75h3.77v3.77c0 .425.347.745.75.745h4.52a.746.746 0 0 0 .745-.746v-1.5a.746.746 0 0 0-.746-.746.765.765 0 0 0-.75.746v.75h-3.02V119.7a.747.747 0 0 0-.75-.746h-3.769v-2.996h3.77a.75.75 0 0 0 .75-.75v-3.77h3.02v3.77c0 .43.347.75.75.75h3.769v3.02h-3.797c-.43 0-.75.347-.75.75 0 .402.347.75.75.75h4.515c.43 0 .75-.348.75-.75v-4.52c0-.426-.32-.773-.75-.773m15.055.772a3.017 3.017 0 0 0 3.02-3.02 3 3 0 0 0-3.02-3.019 3.017 3.017 0 0 0-3.023 3.02 3.017 3.017 0 0 0 3.023 3.019m0-4.516c.828 0 1.496.668 1.496 1.496 0 .829-.668 1.497-1.496 1.497a1.497 1.497 0 1 1 0-2.993m0 9.009a3.02 3.02 0 0 0-3.023 3.023 3.02 3.02 0 0 0 3.023 3.02 3.017 3.017 0 0 0 3.02-3.02c-.028-1.66-1.364-3.024-3.02-3.024m0 4.519a1.497 1.497 0 1 1 0-2.996c.828 0 1.496.668 1.496 1.5 0 .828-.668 1.496-1.496 1.496m2.247-6.765a3.02 3.02 0 1 0 6.04 0 3 3 0 0 0-3.021-3.02 3.017 3.017 0 0 0-3.02 3.02m4.515 0a1.497 1.497 0 1 1-1.496-1.496c.828 0 1.496.668 1.496 1.496m-12.03-3.019a3.017 3.017 0 0 0-3.02 3.02 3.003 3.003 0 0 0 3.02 3.023 3.004 3.004 0 0 0 3.023-3.024 3.017 3.017 0 0 0-3.023-3.02m0 4.52a1.497 1.497 0 0 1-1.496-1.5c0-.829.667-1.497 1.496-1.497a1.498 1.498 0 1 1 0 2.996m0 0"/><g clip-path="url(#y)" transform="translate(57 147)"><path d="M1.231 33.953v-4.609l5.782-16.062H1.794V8.61h10.594v4.422L6.45 29.297h5.672v4.656Zm12.065 0L15.749 8.61h8.578l2.422 25.343h-4.797l-.36-4.093h-3.078l-.28 4.093Zm5.61-8.14h2.296l-1.11-12.89h-.25Zm12.448 8.14V25.61l-4.047-17h5.016l1.421 8.593 1.422-8.593h5.016l-4.047 17v8.343ZM41.449 8.61h6.984q2.72.002 4.078 1.515 1.36 1.5 1.375 4.453l.063 11.86q.029 3.738-1.297 5.625-1.332 1.892-4.39 1.89h-6.813Zm5.984 20.86q1.39 0 1.39-1.36V15.047c0-.57-.046-1-.14-1.281q-.128-.436-.484-.578-.363-.155-1.094-.156h-.562v16.437Zm9.029-13.423.937-3.422h-1.828v-4.28h5.406V12.5l-1.484 3.547Zm12.391 18.141q-3.457 0-4.984-1.703-1.534-1.718-1.532-5.516v-2.484h4.985v3.156c0 1.262.398 1.89 1.203 1.89q.684.002.953-.39.265-.405.266-1.36c0-.82-.102-1.503-.297-2.046q-.298-.81-.766-1.36c-.305-.363-.844-.925-1.625-1.687L64.87 20.5q-2.532-2.484-2.532-5.484c0-2.164.492-3.813 1.485-4.938.988-1.132 2.437-1.703 4.343-1.703q3.422.001 4.922 1.813c1.008 1.21 1.516 3.105 1.516 5.687h-5.156l-.032-1.75q0-.497-.28-.797-.283-.294-.782-.296-.598 0-.89.328-.299.327-.298.89 0 1.238 1.422 2.563l2.953 2.828q1.03 1.02 1.704 1.922.684.89 1.093 2.11.406 1.218.407 2.905c0 2.5-.461 4.399-1.375 5.688q-1.362 1.922-4.516 1.922M7.778 62.963q-2.766 0-4.437-1.735-1.657-1.746-1.656-4.78V44.76c0-2.508.5-4.407 1.5-5.688s2.57-1.922 4.718-1.922q2.796.001 4.5 1.532 1.719 1.534 1.72 4.421v4.375H9.074v-3.75q-.001-1.089-.265-1.5-.268-.42-.907-.421c-.46 0-.773.164-.937.484-.168.312-.25.773-.25 1.375v12.719q-.002 1.001.297 1.468.293.456.89.454 1.173 0 1.172-1.922v-4.578h5.11v4.78q-.001 6.376-6.407 6.376m13.953 0q-3.128.002-4.64-1.766-1.517-1.764-1.516-5.25V37.385h4.922v18.36q0 1.205.235 1.89.233.673 1 .672.781 0 1.015-.657.235-.669.235-1.906v-18.36h4.922v18.563q-.002 3.486-1.516 5.25c-1.012 1.18-2.563 1.766-4.656 1.766m14.139 0q-3.455 0-4.984-1.703-1.533-1.719-1.531-5.516V53.26h4.984v3.156q-.002 1.891 1.203 1.89.685.001.954-.39.264-.405.265-1.36-.002-1.23-.297-2.046-.298-.809-.765-1.36c-.305-.363-.844-.925-1.625-1.687l-2.188-2.188q-2.53-2.484-2.531-5.484c0-2.164.492-3.813 1.484-4.938.989-1.132 2.438-1.703 4.344-1.703q3.422.001 4.922 1.813 1.514 1.814 1.516 5.687h-5.157l-.031-1.75q0-.498-.281-.797-.283-.294-.781-.296-.599 0-.891.328-.299.327-.297.89 0 1.238 1.422 2.563l2.953 2.828q1.03 1.02 1.703 1.922.684.89 1.094 2.11.406 1.218.406 2.905c0 2.5-.46 4.399-1.375 5.688-.906 1.281-2.414 1.922-4.515 1.922m9.756-.235V42.26h-3v-4.875H53.72v4.875h-3.016v20.468Zm15.557.235q-3.08 0-4.672-1.875-1.58-1.874-1.578-5.266V43.76q-.001-3.28 1.578-4.938 1.593-1.67 4.672-1.672 3.061.001 4.657 1.672 1.593 1.657 1.593 4.938v12.062q0 3.423-1.593 5.281c-1.063 1.243-2.618 1.86-4.657 1.86m0-4.656q.67.002.907-.594.234-.591.234-1.656V43.666q0-.826-.219-1.344-.222-.516-.89-.515-1.283 0-1.282 1.921v12.36q-.002 1.094.266 1.656.264.563.984.563m8.291 4.421V37.385h7.719l2.125 15.468 2.125-15.468h7.797v25.343H84.6V44.463l-2.923 18.265h-4.531l-3.11-18.265v18.265Zm28.911-25.343h6.688c2.031 0 3.476.656 4.344 1.968q1.295 1.956 1.296 5.735 0 3.783-1.156 5.703-1.143 1.908-4.125 1.906h-2.062v10.031h-4.985Zm5.282 10.734q.903 0 1.328-.328.433-.34.562-.969.14-.639.14-1.828 0-1.593-.359-2.297-.345-.703-1.406-.703h-.562v6.125Zm14.534 14.844q-2.767 0-4.438-1.735-1.657-1.746-1.656-4.78V44.76c0-2.508.5-4.407 1.5-5.688s2.57-1.922 4.719-1.922q2.794.001 4.5 1.532 1.717 1.534 1.718 4.421v4.375h-5.047v-3.75q-.001-1.089-.265-1.5-.269-.42-.906-.421c-.461 0-.774.164-.938.484-.168.312-.25.773-.25 1.375v12.719q0 1.001.297 1.468.293.456.89.454 1.172 0 1.172-1.922v-4.578h5.11v4.78q-.001 6.376-6.406 6.376m14.108 0q-3.457 0-4.984-1.703-1.534-1.719-1.532-5.516V53.26h4.985v3.156c0 1.262.398 1.89 1.203 1.89q.684.001.953-.39.265-.405.266-1.36c0-.82-.102-1.503-.297-2.046q-.298-.809-.766-1.36-.455-.544-1.625-1.687l-2.187-2.188q-2.532-2.484-2.532-5.484c0-2.164.493-3.813 1.485-4.938.988-1.132 2.437-1.703 4.344-1.703q3.42.001 4.921 1.813 1.514 1.814 1.516 5.687h-5.156l-.031-1.75q0-.498-.282-.797-.282-.294-.78-.296-.599 0-.892.328-.297.327-.296.89-.001 1.238 1.421 2.563l2.954 2.828q1.03 1.02 1.703 1.922.684.89 1.093 2.11.406 1.218.407 2.905c0 2.5-.461 4.399-1.375 5.688q-1.362 1.922-4.516 1.922m0 0"/></g></svg>